<svg version="1.1" xmlns="http://www.w3.org/2000/svg" xmlns:xlink="http://www.w3.org/1999/xlink" width="65.54377" height="52.58087" viewBox="0,0,65.54377,52.58087"><g transform="translate(-209.28225,-154.73903)"><g data-paper-data="{&quot;isPaintingLayer&quot;:true}" fill-rule="nonzero" stroke-linejoin="miter" stroke-miterlimit="10" stroke-dasharray="" stroke-dashoffset="0" style="mix-blend-mode: normal"><path d="M213.03226,166.23401c27.19602,-17.29755 53.93551,-0.21895 53.93551,-0.21895" fill="none" stroke="#ffffff" stroke-width="7.5" stroke-linecap="round"/><path d="M222.02693,176.40878c17.71812,-12.0426 35.72721,0 35.72721,0" fill="none" stroke="#ffffff" stroke-width="7.5" stroke-linecap="round"/><path d="M231.43523,186.36862c9.26536,-6.58679 17.12958,0 17.12958,0" fill="none" stroke="#ffffff" stroke-width="7.5" stroke-linecap="round"/><path d="M240.00003,201.511c-1.5154,0 -2.6811,-1.1657 -2.6811,-2.6811c0,-1.51539 1.16569,-2.68109 2.6811,-2.68109c1.51539,0 2.68109,1.16568 2.68109,2.68109c0,1.5154 -1.28226,2.6811 -2.68109,2.6811z" fill="#ffffff" stroke="#ffffff" stroke-width="8.5" stroke-linecap="butt"/><path d="M259.21894,197.29545l-1.71233,0.08114l1.54507,-1.83613v7.58993" fill="none" stroke="#ffffff" stroke-width="5.5" stroke-linecap="round"/><path d="M266.95747,198.02573l1.71233,-0.08114l-1.54507,1.83613v-7.58993" data-paper-data="{&quot;index&quot;:null}" fill="none" stroke-opacity="0.50196" stroke="#ffffff" stroke-width="5.5" stroke-linecap="round"/></g></g></svg>