<svg version="1.1" xmlns="http://www.w3.org/2000/svg" xmlns:xlink="http://www.w3.org/1999/xlink" width="20.28676" height="19.77941" viewBox="0,0,20.28676,19.77941"><g transform="translate(-229.85662,-169.52206)"><g data-paper-data="{&quot;isPaintingLayer&quot;:true}" fill-rule="nonzero" stroke-linecap="butt" stroke-linejoin="miter" stroke-miterlimit="10" stroke-dasharray="" stroke-dashoffset="0" style="mix-blend-mode: normal"><path d="M229.85662,189.30147v-19.77941h20.28676v19.77941z" fill-opacity="0.01176" fill="#ffffff" stroke="none" stroke-width="0"/><path d="M238.99624,179.41574c0,-0.57408 0.46538,-1.03946 1.03946,-1.03946c0.57408,0 1.03946,0.46538 1.03946,1.03946c0,0.57408 -0.46538,1.03946 -1.03946,1.03946c-0.57408,0 -1.03946,-0.46538 -1.03946,-1.03946z" fill="#ffffff" stroke="none" stroke-width="0"/><path d="M241.78751,179.41574c0,-0.57408 0.46538,-1.03946 1.03946,-1.03946c0.57408,0 1.03946,0.46538 1.03946,1.03946c0,0.57408 -0.46538,1.03946 -1.03946,1.03946c-0.57408,0 -1.03946,-0.46538 -1.03946,-1.03946z" fill="#ffffff" stroke="none" stroke-width="0"/><path d="M236.08866,179.41574c0,-0.57408 0.46538,-1.03946 1.03946,-1.03946c0.57408,0 1.03946,0.46538 1.03946,1.03946c0,0.57408 -0.46538,1.03946 -1.03946,1.03946c-0.57408,0 -1.03946,-0.46538 -1.03946,-1.03946z" fill="#ffffff" stroke="none" stroke-width="0"/><path d="M238.99624,176.62446c0,-0.57408 0.46538,-1.03946 1.03946,-1.03946c0.57408,0 1.03946,0.46538 1.03946,1.03946c0,0.57408 -0.46538,1.03946 -1.03946,1.03946c-0.57408,0 -1.03946,-0.46538 -1.03946,-1.03946z" fill="#ffffff" stroke="none" stroke-width="0"/><path d="M241.84566,176.62446c0,-0.57408 0.46538,-1.03946 1.03946,-1.03946c0.57408,0 1.03946,0.46538 1.03946,1.03946c0,0.57408 -0.46538,1.03946 -1.03946,1.03946c-0.57408,0 -1.03946,-0.46538 -1.03946,-1.03946z" fill="#ffffff" stroke="none" stroke-width="0"/><path d="M236.14416,176.63239c0,-0.57408 0.46538,-1.03946 1.03946,-1.03946c0.57408,0 1.03946,0.46538 1.03946,1.03946c0,0.57408 -0.46538,1.03946 -1.03946,1.03946c-0.57408,0 -1.03946,-0.46538 -1.03946,-1.03946z" fill="#ffffff" stroke="none" stroke-width="0"/><path d="M238.99624,182.19908c0,-0.57408 0.46538,-1.03946 1.03946,-1.03946c0.57408,0 1.03946,0.46538 1.03946,1.03946c0,0.57408 -0.46538,1.03946 -1.03946,1.03946c-0.57408,0 -1.03946,-0.46538 -1.03946,-1.03946z" fill="#ffffff" stroke="none" stroke-width="0"/><path d="M241.81394,182.16472c0,-0.57408 0.46538,-1.03946 1.03946,-1.03946c0.57408,0 1.03946,0.46538 1.03946,1.03946c0,0.57408 -0.46538,1.03946 -1.03946,1.03946c-0.57408,0 -1.03946,-0.46538 -1.03946,-1.03946z" fill="#ffffff" stroke="none" stroke-width="0"/><path d="M236.07544,182.16472c0,-0.57408 0.46538,-1.03946 1.03946,-1.03946c0.57408,0 1.03946,0.46538 1.03946,1.03946c0,0.57408 -0.46538,1.03946 -1.03946,1.03946c-0.57408,0 -1.03946,-0.46538 -1.03946,-1.03946z" fill="#ffffff" stroke="none" stroke-width="0"/><path d="M234.65431,185.30958c-1.12744,0 -1.65654,-1.1403 -1.6558,-2.35702c0.00002,-0.04992 0.00091,-6.96794 0.00265,-7.0178c-0.01925,-1.12474 0.48914,-2.42082 1.73274,-2.42082h10.47412c1.30754,0.01764 1.78885,1.2802 1.79315,2.42171c0.00063,0.05127 0.00033,7.0687 -0.00085,7.11995c0.00776,1.00143 -0.40761,2.23635 -1.7923,2.25399z" fill="none" stroke="#ffffff" stroke-width="1"/></g></g></svg>