<svg version="1.1" xmlns="http://www.w3.org/2000/svg" xmlns:xlink="http://www.w3.org/1999/xlink" width="32.875" height="16.25" viewBox="0,0,32.875,16.25"><g transform="translate(-223.5625,-170.75)"><g data-paper-data="{&quot;isPaintingLayer&quot;:true}" fill-rule="nonzero" stroke-linecap="butt" stroke-linejoin="miter" stroke-miterlimit="10" stroke-dasharray="" stroke-dashoffset="0" style="mix-blend-mode: normal"><path d="M223.5625,187v-16.25h32.875v16.25z" fill-opacity="0.01176" fill="#ffffff" stroke="none" stroke-width="0"/><path d="M233.19466,185.14779c-1.43529,0 -2.10887,-1.1403 -2.10792,-2.35702c0.00003,-0.04992 0.00116,-6.96794 0.00338,-7.0178c-0.02451,-1.12474 0.6227,-2.42082 2.20586,-2.42082h13.33409c1.66456,0.01764 2.27729,1.2802 2.28277,2.42171c0.0008,0.05127 0.00043,7.0687 -0.00108,7.11995c0.00987,1.00143 -0.51891,2.23635 -2.28169,2.25399z" fill="none" stroke="#ffffff" stroke-width="1"/><path d="M236.4379,183.25764v-1.89979h7.12421v1.89979z" fill="#ffffff" stroke="none" stroke-width="0"/><path d="M233.26906,183.25765v-1.89979h1.89979v1.89979z" fill="#ffffff" stroke="none" stroke-width="0"/><path d="M244.79269,183.25765v-1.89979h1.89979v1.89979z" fill="#ffffff" stroke="none" stroke-width="0"/><path d="M239.05011,180.37296v-1.89978h1.89979v1.89978z" fill="#ffffff" stroke="none" stroke-width="0"/><path d="M236.16542,180.37296v-1.89978h1.89979v1.89978z" fill="#ffffff" stroke="none" stroke-width="0"/><path d="M241.9348,180.37296v-1.89978h1.89979v1.89978z" fill="#ffffff" stroke="none" stroke-width="0"/><path d="M233.28073,180.37296v-1.89978h1.89979v1.89978z" fill="#ffffff" stroke="none" stroke-width="0"/><path d="M244.81949,180.37296v-1.89978h1.89979v1.89978z" fill="#ffffff" stroke="none" stroke-width="0"/></g></g></svg>