<svg version="1.1" xmlns="http://www.w3.org/2000/svg" xmlns:xlink="http://www.w3.org/1999/xlink" width="57.45972" height="20.18763" viewBox="0,0,57.45972,20.18763"><g transform="translate(-241.67599,-169.90618)"><g data-paper-data="{&quot;isPaintingLayer&quot;:true}" fill-rule="nonzero" stroke="none" stroke-linecap="butt" stroke-linejoin="miter" stroke-miterlimit="10" stroke-dasharray="" stroke-dashoffset="0" style="mix-blend-mode: normal"><text transform="translate(260.40801,183.14172) scale(0.2398,0.2398)" font-size="40" xml:space="preserve" fill="#000000" fill-rule="nonzero" stroke="none" stroke-width="1" stroke-linecap="butt" stroke-linejoin="miter" stroke-miterlimit="10" stroke-dasharray="" stroke-dashoffset="0" font-family="HarmonyOS_Sans_SC, &quot;HarmonyOS Sans SC&quot;" font-weight="normal" text-anchor="start" style="mix-blend-mode: normal"><tspan x="0" dy="0">萨克斯管</tspan></text><path d="M241.67599,190.09381v-20.18763h56.64802v20.18763z" data-paper-data="{&quot;index&quot;:null}" fill-opacity="0.01176" fill="#ffffff" stroke-width="0"/><g stroke-width="0"><path d="M245.19096,180.28205c0,-3.26228 2.64459,-5.90686 5.90687,-5.90686c3.26227,0 5.90686,2.64459 5.90686,5.90686c0,3.26228 -2.64459,5.90686 -5.90686,5.90686c-3.26227,0 -5.90687,-2.64459 -5.90687,-5.90686z" fill="#007dff"/><path d="M248.27649,180.28205c0,-1.55818 1.26315,-2.82134 2.82133,-2.82134c1.55818,0 2.82133,1.26316 2.82133,2.82134c0,1.55818 -1.26315,2.82133 -2.82133,2.82133c-1.55818,0 -2.82133,-1.26315 -2.82133,-2.82133z" fill="#ffffff"/></g></g></g></svg>