<svg version="1.1" xmlns="http://www.w3.org/2000/svg" xmlns:xlink="http://www.w3.org/1999/xlink" width="309.87627" height="58.06305" viewBox="0,0,309.87627,58.06305"><g transform="translate(15.84828,-157.2551)"><g data-paper-data="{&quot;isPaintingLayer&quot;:true}" fill-rule="nonzero" stroke-linecap="butt" stroke-linejoin="miter" stroke-miterlimit="10" stroke-dasharray="" stroke-dashoffset="0" style="mix-blend-mode: normal"><path d="M-9.62236,175.00869h21.7907v-17.75359h6.4691v42.70588h-6.22591v-19.45598h-22.0339v19.45598h-6.22591v-42.70588h6.22591z" fill="#ffffff" stroke="none" stroke-width="1"/><path d="M45.7299,172.18757c2.36977,2.47073 3.58825,5.82596 3.35616,9.24159v18.53182h-5.15583c0,-1.75104 0,-2.96705 -0.29184,-3.69663c-1.96148,3.0083 -5.42083,4.69122 -8.99838,4.37759c-1.92153,0.01469 -3.82553,-0.3661 -5.59359,-1.11873c-1.61773,-0.67438 -3.01565,-1.78601 -4.03713,-3.21024c-0.99003,-1.42809 -1.51647,-3.12632 -1.50784,-4.864c-0.0738,-2.83418 1.30114,-5.51074 3.648,-7.10144c2.77575,-1.8395 6.06016,-2.75848 9.38751,-2.62655c2.23323,0.00996 4.45611,0.30416 6.61503,0.87551v0c0.18125,-2.17331 -0.40382,-4.34152 -1.65376,-6.12863c-1.23182,-1.36784 -3.02867,-2.08656 -4.86401,-1.94559c-1.55088,-0.04724 -3.08405,0.34027 -4.42624,1.11873c-1.24865,0.85312 -2.28119,1.9856 -3.01567,3.30751l-4.42624,-2.57792c1.02238,-2.18633 2.73011,-3.97944 4.86401,-5.1072c2.26861,-1.32941 4.86173,-2.00295 7.49055,-1.94559c3.13256,-0.19023 6.21735,0.83805 8.60926,2.86975zM43.15197,186.77956c-2.00019,-0.53744 -4.05796,-0.83141 -6.12863,-0.87551c-1.90539,-0.10605 -3.7999,0.35065 -5.44767,1.31328c-1.22876,0.844 -1.94358,2.2553 -1.89696,3.74528c-0.05418,1.31827 0.5241,2.58323 1.55647,3.40478c1.19586,0.87617 2.65303,1.32189 4.13439,1.26465c1.99196,0.04617 3.93701,-0.60791 5.49632,-1.84831c1.45861,-1.192 2.29912,-2.98032 2.28608,-4.86401z" fill="#ffffff" stroke="none" stroke-width="1"/><path d="M71.21723,169.4151c0.75689,0.18777 1.45755,0.55478 2.04288,1.07008l-2.28608,4.864c-0.88165,-0.57152 -1.91688,-0.86002 -2.96704,-0.82688c-2.13364,-0.01593 -4.14397,0.9983 -5.39902,2.72385c-1.50086,2.32473 -2.21686,5.0694 -2.04289,7.83103v14.98111h-6.03136v-30.25404h5.30175c0,1.84831 0,3.50208 0.34047,4.864c0.75719,-1.67757 1.94961,-3.12187 3.45343,-4.18304c1.4353,-0.96436 3.13546,-1.45741 4.86401,-1.41055c0.91993,-0.02495 1.83833,0.08985 2.72384,0.34047z" fill="#ffffff" stroke="none" stroke-width="1"/><path d="M116.46549,173.68795c1.96963,2.607 2.93636,5.8352 2.72384,9.09567v18.67774h-5.88543v-16.82943c0.12071,-2.22846 -0.36689,-4.44781 -1.41055,-6.42048c-0.84241,-1.50489 -2.45995,-2.40768 -4.18304,-2.33471c-1.90531,-0.06277 -3.72122,0.80886 -4.86401,2.33471c-1.38617,1.89696 -2.05799,4.22246 -1.89696,6.5664v16.53758h-5.88543v-16.6835c0.11983,-2.24395 -0.36745,-4.47873 -1.41055,-6.4691c-0.83082,-1.4867 -2.43354,-2.3729 -4.1344,-2.28608c-1.90531,-0.06277 -3.72122,0.80886 -4.86401,2.33471c-1.37123,1.90425 -2.04145,4.22427 -1.89696,6.5664v16.53758h-5.98271v-30.25404h5.25312c0,1.23222 0.09727,2.74003 0.29184,4.52351c0.8965,-1.62383 2.20507,-2.98273 3.79393,-3.93982c1.48384,-0.8429 3.15757,-1.29481 4.86401,-1.31328c1.89207,-0.03577 3.74725,0.52591 5.30175,1.60512c1.63212,1.21966 2.84007,2.92101 3.45343,4.864c0.77795,-1.96203 2.11386,-3.65305 3.84255,-4.864c1.60202,-1.05575 3.48046,-1.61419 5.39903,-1.60512c2.89906,-0.1935 5.70527,1.06382 7.49055,3.35616z" fill="#ffffff" stroke="none" stroke-width="1"/><path d="M124.8802,178.06553c1.28739,-2.33112 3.18813,-4.26553 5.49632,-5.59359c2.2287,-1.30273 4.76312,-1.99088 7.34463,-1.99424c2.56754,-0.00694 5.08895,0.68223 7.29598,1.99424c2.29028,1.33506 4.17361,3.26882 5.44767,5.59359c2.72407,5.15879 2.72407,11.33015 0,16.48894c-1.27406,2.32477 -3.15739,4.25853 -5.44767,5.59359c-2.20703,1.31201 -4.72844,2.00118 -7.29598,1.99424c-2.5815,-0.00336 -5.11593,-0.6915 -7.34463,-1.99424c-2.30819,-1.32806 -4.20893,-3.26247 -5.49632,-5.59359c-2.72407,-5.15879 -2.72407,-11.33015 0,-16.48894zM131.59251,193.87353c1.5248,1.78643 3.75562,2.81527 6.10431,2.81527c2.34869,0 4.57951,-1.02884 6.10431,-2.81527c1.69706,-2.15197 2.54515,-4.85199 2.38336,-7.58783c0.14827,-2.73415 -0.69835,-5.42952 -2.38336,-7.58783c-1.5217,-1.79916 -3.77268,-2.81746 -6.12863,-2.77247c-2.34195,-0.04426 -4.57775,0.97526 -6.07998,2.77247c-1.69845,2.15362 -2.56207,4.84815 -2.432,7.58783c-0.14808,2.74203 0.71754,5.44276 2.432,7.58783z" fill="#ffffff" stroke="none" stroke-width="1"/><path d="M179.98923,173.68795c2.10551,2.62007 3.14743,5.9368 2.9184,9.29022v18.48317h-5.98271v-16.82942c0.13781,-2.26966 -0.42232,-4.52714 -1.60512,-6.4691c-1.09992,-1.57218 -2.95163,-2.44248 -4.86401,-2.28608c-2.10791,-0.03259 -4.13436,0.81322 -5.59359,2.33471c-1.62073,1.78834 -2.44579,4.15817 -2.28608,6.5664v16.53758h-6.03136v-30.25404h5.39902c0,1.89696 0.00001,3.55071 0.38912,4.864c0.87979,-1.79126 2.28922,-3.2686 4.03712,-4.23166c1.76695,-0.98831 3.76384,-1.49176 5.78816,-1.4592c2.99541,-0.0777 5.86838,1.18927 7.83103,3.45344z" fill="#ffffff" stroke="none" stroke-width="1"/><path d="M207.90857,171.20732h6.22591l-14.12831,35.25259c-0.33426,0.66883 -2.44783,5.68682 -3.96327,8.85617c-2.55824,0.01724 -3.65194,-0.07911 -5.46089,-0.06535c2.38466,-4.69614 5.72051,-13.62458 5.72051,-13.62458l-12.51934,-30.41885h6.80959l8.99838,23.20125z" fill="#ffffff" stroke="none" stroke-width="1"/><path d="M292.42708,195.30843c-1.20912,1.85548 -2.9481,3.30463 -4.99121,4.15933c-2.31397,1.01741 -4.82075,1.52191 -7.34815,1.47887c-3.58633,0.08178 -7.11902,-0.88168 -10.16726,-2.77288c-2.74809,-1.65117 -4.77659,-4.27339 -5.68441,-7.34815l4.62149,-2.77288c0.85397,2.2067 2.3312,4.11745 4.25175,5.49957c2.05807,1.34026 4.47741,2.01768 6.93221,1.94103c2.01778,0.13224 4.02102,-0.42148 5.68441,-1.57131c1.42696,-1.0887 2.19485,-2.8339 2.03346,-4.62148c0.04855,-1.36521 -0.41273,-2.69961 -1.29402,-3.74339c-0.90262,-0.97907 -2.00616,-1.75153 -3.23503,-2.26452c-1.29402,-0.49295 -3.05018,-1.09374 -5.26848,-1.80238c-2.19779,-0.60306 -4.34551,-1.37563 -6.42385,-2.31075c-1.61511,-0.70399 -3.02889,-1.80009 -4.11313,-3.18882c-1.17246,-1.63902 -1.75856,-3.62524 -1.66373,-5.6382c-0.07379,-2.24606 0.59189,-4.4542 1.8948,-6.2852c1.28113,-1.74154 3.02693,-3.08692 5.03741,-3.88204c2.2784,-0.90184 4.71336,-1.34171 7.16328,-1.29402c3.14201,-0.12452 6.24911,0.69652 8.91946,2.35695c2.21408,1.4843 3.84681,3.68849 4.62149,6.239l-4.85256,2.81911c-1.37211,-3.7389 -4.98489,-6.17846 -8.96566,-6.05413c-1.96373,-0.09438 -3.90642,0.43985 -5.54577,1.52509c-1.34165,0.93334 -2.12333,2.47935 -2.07967,4.11313c-0.02029,1.17718 0.40949,2.31774 1.20159,3.18882c0.85503,0.84939 1.87825,1.51056 3.00396,1.94103c1.59975,0.64785 3.23535,1.20333 4.89876,1.66373c2.28077,0.64483 4.51888,1.43203 6.70114,2.35695c1.73136,0.78974 3.23987,1.99654 4.3904,3.51232c1.30566,1.77483 1.95861,3.94596 1.84858,6.14656c0.16797,2.31204 -0.38069,4.61969 -1.57131,6.60872z" fill="#ffffff" stroke="none" stroke-width="1"/><path d="M221.28448,179.82221c0,-10.19817 8.26726,-18.46545 18.46545,-18.46545c10.19817,0 18.46545,8.26726 18.46545,18.46545c0,10.19817 -8.26726,18.46544 -18.46545,18.46544c-10.19817,0 -18.46545,-8.26725 -18.46545,-18.46544z" fill="none" stroke="#ffffff" stroke-width="6"/></g></g></svg>