<svg version="1.1" xmlns="http://www.w3.org/2000/svg" xmlns:xlink="http://www.w3.org/1999/xlink" width="53.00727" height="58.39819" viewBox="0,0,53.00727,58.39819"><defs><linearGradient x1="224.93495" y1="157.83369" x2="224.93495" y2="188.56084" gradientUnits="userSpaceOnUse" id="color-1"><stop offset="0" stop-color="#d6e5ff"/><stop offset="1" stop-color="#85c4ff"/></linearGradient><linearGradient x1="218.7689" y1="181.4971" x2="218.7689" y2="201.42904" gradientUnits="userSpaceOnUse" id="color-2"><stop offset="0" stop-color="#b3cfff"/><stop offset="1" stop-color="#0090ff"/></linearGradient><linearGradient x1="258.84074" y1="157.83369" x2="258.84074" y2="196.3309" gradientUnits="userSpaceOnUse" id="color-3"><stop offset="0" stop-color="#d6e5ff"/><stop offset="1" stop-color="#85c4ff"/></linearGradient><linearGradient x1="252.67467" y1="189.26716" x2="252.67467" y2="209.19911" gradientUnits="userSpaceOnUse" id="color-4"><stop offset="0" stop-color="#b3daff"/><stop offset="1" stop-color="#0083ff"/></linearGradient><linearGradient x1="242.06591" y1="149.50321" x2="241.3566" y2="163.6918" gradientUnits="userSpaceOnUse" id="color-5"><stop offset="0" stop-color="#f0f9ff"/><stop offset="1" stop-color="#c3daff"/></linearGradient></defs><g transform="translate(-209.21817,-150.80091)"><g data-paper-data="{&quot;isPaintingLayer&quot;:true}" fill-rule="nonzero" stroke="none" stroke-linecap="butt" stroke-linejoin="miter" stroke-miterlimit="10" stroke-dasharray="" stroke-dashoffset="0" style="mix-blend-mode: normal"><path d="M221.93289,188.56084v-30.72713h6.00417v30.72713z" fill="url(#color-1)" stroke-width="0"/><path d="M228.31963,191.46307c0,5.50405 -4.27603,9.96597 -9.55075,9.96597c-5.27472,0 -9.55071,-4.46192 -9.55071,-9.96597c0,-5.50405 4.27599,-9.96597 9.55071,-9.96597c5.27472,0 9.55075,4.46192 9.55075,9.96597z" fill="url(#color-2)" stroke-width="2"/><path d="M255.8387,196.3309v-38.49719h6.00417v38.49719z" fill="url(#color-3)" stroke-width="0"/><path d="M262.22544,199.23313c0,5.50405 -4.27603,9.96597 -9.55071,9.96597c-5.27468,0 -9.55075,-4.46192 -9.55075,-9.96597c0,-5.50405 4.27603,-9.96597 9.55075,-9.96597c5.27468,0 9.55071,4.46192 9.55071,9.96597z" fill="url(#color-4)" stroke-width="2"/><path d="M222.05244,162.39415l-0.26074,-10.2379l39.57836,-1.35534l0.26074,10.2379z" fill="url(#color-5)" stroke-width="0"/><path d="M222.28869,200.15069v-48.2293h39.48825v48.2293z" data-paper-data="{&quot;index&quot;:null}" fill-opacity="0.01176" fill="#ffffff" stroke-width="0"/></g></g></svg>