<svg version="1.1" xmlns="http://www.w3.org/2000/svg" xmlns:xlink="http://www.w3.org/1999/xlink" width="40.58515" height="34.34976" viewBox="0,0,40.58515,34.34976"><g transform="translate(-307.60238,-167.625)"><g data-paper-data="{&quot;isPaintingLayer&quot;:true}" fill-rule="nonzero" stroke-linecap="butt" stroke-linejoin="miter" stroke-miterlimit="10" stroke-dasharray="" stroke-dashoffset="0" style="mix-blend-mode: normal"><path d="M307.62505,180c0,-6.83453 5.54047,-12.375 12.375,-12.375c6.83453,0 12.375,5.54047 12.375,12.375c0,6.83453 -5.54047,12.375 -12.375,12.375c-6.83453,0 -12.375,-5.54047 -12.375,-12.375z" fill="#d9d9d9" stroke="none" stroke-width="0"/><text transform="translate(307.84855,200.08233) scale(0.49234,0.49234)" font-size="12" xml:space="preserve" fill="#000000" fill-rule="nonzero" stroke="none" stroke-width="1" stroke-linecap="butt" stroke-linejoin="miter" stroke-miterlimit="10" stroke-dasharray="" stroke-dashoffset="0" font-family="HarmonyOS_Sans_SC, &quot;HarmonyOS Sans SC&quot;" font-weight="400" text-anchor="start" style="mix-blend-mode: normal"><tspan x="0" dy="0">深色模式</tspan></text><path d="M321.05427,180.02135c0,1.91852 -1.49178,3.47378 -3.33199,3.47378c-1.84021,0 -3.332,-1.55526 -3.332,-3.47378c0,-1.91852 1.49179,-3.47378 3.332,-3.47378c1.84021,0 3.33199,1.55526 3.33199,3.47378z" fill="#666666" stroke="#666666" stroke-width="1.25"/><path d="M324.60112,182.4803c-0.60743,0.61483 -1.43821,0.99032 -2.35134,0.98208c-1.84013,-0.0166 -3.31782,-1.58525 -3.30053,-3.50368c0.0173,-1.91844 1.52305,-3.46018 3.36318,-3.44359c0.8859,0.00799 1.68781,0.37572 2.27932,0.96902" fill="none" stroke="#d9d9d9" stroke-width="1.25"/><path d="M320.36821,177.13155c0.54075,-0.39494 1.19918,-0.62668 1.90955,-0.62668c1.84021,0 3.33199,1.55526 3.33199,3.47378c0,1.91852 -1.49178,3.47378 -3.33199,3.47378c-0.70762,0 -1.36372,-0.22996 -1.90328,-0.62212" fill="none" stroke="#666666" stroke-width="1.25"/><path d="M340.93754,184.42738v-10.875h7.25v10.875z" fill="none" stroke-opacity="0.38039" stroke="#000000" stroke-width="0"/></g></g></svg>