<svg version="1.1" xmlns="http://www.w3.org/2000/svg" xmlns:xlink="http://www.w3.org/1999/xlink" width="280.91549" height="44.09091" viewBox="0,0,280.91549,44.09091"><g transform="translate(-99.54226,-157.9546)"><g data-paper-data="{&quot;isPaintingLayer&quot;:true}" fill-rule="nonzero" stroke-linejoin="miter" stroke-miterlimit="10" stroke-dasharray="" stroke-dashoffset="0" style="mix-blend-mode: normal"><path d="M124.23077,202.04552c-32.91802,0 -32.91802,-44.09091 0,-44.09091h231.53846c32.91802,0 32.91802,44.09091 0,44.09091z" fill="#ffffff" stroke="#231815" stroke-width="0" stroke-linecap="butt"/><path d="M310.83009,167.3159v25.36825" fill="none" stroke="#9c9c9c" stroke-width="1" stroke-linecap="round"/><path d="M126.21428,180.00005c0,-2.48528 2.01472,-4.5 4.5,-4.5c2.48528,0 4.5,2.01472 4.5,4.5c0,2.48528 -2.01472,4.5 -4.5,4.5c-2.48528,0 -4.5,-2.01472 -4.5,-4.5z" fill="#000000" stroke="#000000" stroke-width="1.5" stroke-linecap="butt"/><path d="M145.5,180.00005c0,-2.48528 2.01472,-4.5 4.5,-4.5c2.48528,0 4.5,2.01472 4.5,4.5c0,2.48528 -2.01472,4.5 -4.5,4.5c-2.48528,0 -4.5,-2.01472 -4.5,-4.5z" fill="#000000" stroke="#000000" stroke-width="1.5" stroke-linecap="butt"/><path d="M164.78571,180.00005c0,-2.48528 2.01472,-4.5 4.5,-4.5c2.48528,0 4.5,2.01472 4.5,4.5c0,2.48528 -2.01472,4.5 -4.5,4.5c-2.48528,0 -4.5,-2.01472 -4.5,-4.5z" fill="#000000" stroke="#000000" stroke-width="1.5" stroke-linecap="butt"/><path d="M184.07143,180.00005c0,-2.48528 2.01472,-4.5 4.5,-4.5c2.48528,0 4.5,2.01472 4.5,4.5c0,2.48528 -2.01472,4.5 -4.5,4.5c-2.48528,0 -4.5,-2.01472 -4.5,-4.5z" fill="#000000" stroke="#000000" stroke-width="1.5" stroke-linecap="butt"/><path d="M203.35714,180.00005c0,-2.48528 2.01472,-4.5 4.5,-4.5c2.48528,0 4.5,2.01472 4.5,4.5c0,2.48528 -2.01472,4.5 -4.5,4.5c-2.48528,0 -4.5,-2.01472 -4.5,-4.5z" fill="#000000" stroke="#000000" stroke-width="1.5" stroke-linecap="butt"/><path d="M222.64286,180.00004c0,-2.48528 2.01472,-4.5 4.5,-4.5c2.48528,0 4.5,2.01472 4.5,4.5c0,2.48528 -2.01472,4.5 -4.5,4.5c-2.48528,0 -4.5,-2.01472 -4.5,-4.5z" fill="#000000" stroke="#000000" stroke-width="1.5" stroke-linecap="butt"/></g></g></svg>