<svg version="1.1" xmlns="http://www.w3.org/2000/svg" xmlns:xlink="http://www.w3.org/1999/xlink" width="47.08515" height="34.34976" viewBox="0,0,47.08515,34.34976"><g transform="translate(-257.60238,-167.625)"><g data-paper-data="{&quot;isPaintingLayer&quot;:true}" fill-rule="nonzero" stroke-linecap="butt" stroke-linejoin="miter" stroke-miterlimit="10" stroke-dasharray="" stroke-dashoffset="0" style="mix-blend-mode: normal"><path d="M257.62505,180c0,-6.83453 5.54047,-12.375 12.375,-12.375c6.83453,0 12.375,5.54047 12.375,12.375c0,6.83453 -5.54047,12.375 -12.375,12.375c-6.83453,0 -12.375,-5.54047 -12.375,-12.375z" fill="#0047ff" stroke="none" stroke-width="0"/><path d="M265.21396,184.14782c-1.00941,0 -1.48313,-0.80195 -1.48246,-1.65765c0.00002,-0.03511 0.00082,-4.90042 0.00238,-4.93548c-0.01723,-0.79101 0.43793,-1.70252 1.55133,-1.70252h9.37761c1.17066,0.01241 1.60157,0.90034 1.60543,1.70314c0.00056,0.03606 0.0003,4.97128 -0.00076,5.00732c0.00694,0.70428 -0.36494,1.57278 -1.60467,1.58519z" fill="none" stroke="#f7f7f7" stroke-width="1"/><path d="M267.62708,182.32958v-1.26546h4.74547v1.26546z" fill="#f7f7f7" stroke="none" stroke-width="0"/><path d="M265.60249,182.32959v-1.26546h1.26546v1.26546z" fill="#f7f7f7" stroke="none" stroke-width="0"/><path d="M273.19226,182.32959v-1.26546h1.26546v1.26546z" fill="#f7f7f7" stroke="none" stroke-width="0"/><path d="M269.36708,180.40809v-1.26546h1.26546v1.26546z" fill="#f7f7f7" stroke="none" stroke-width="0"/><path d="M267.5318,180.40809v-1.26546h1.26546v1.26546z" fill="#f7f7f7" stroke="none" stroke-width="0"/><path d="M271.28857,180.40809v-1.26546h1.26546v1.26546z" fill="#f7f7f7" stroke="none" stroke-width="0"/><path d="M265.61026,180.40809v-1.26546h1.26546v1.26546z" fill="#f7f7f7" stroke="none" stroke-width="0"/><path d="M273.21011,180.40809v-1.26546h1.26546v1.26546z" fill="#f7f7f7" stroke="none" stroke-width="0"/><text transform="translate(257.84855,200.08233) scale(0.49234,0.49234)" font-size="12" xml:space="preserve" fill="#ffffff" fill-rule="nonzero" stroke="none" stroke-width="1" stroke-linecap="butt" stroke-linejoin="miter" stroke-miterlimit="10" stroke-dasharray="" stroke-dashoffset="0" font-family="HarmonyOS_Sans_SC, &quot;HarmonyOS Sans SC&quot;" font-weight="400" text-anchor="start" style="mix-blend-mode: normal"><tspan x="0" dy="0">虚拟键盘</tspan></text><path d="M291.93753,192.80238v-21.125h12.75v21.125z" fill="none" stroke="none" stroke-width="0"/></g></g></svg>