<svg version="1.1" xmlns="http://www.w3.org/2000/svg" xmlns:xlink="http://www.w3.org/1999/xlink" width="36.60401" height="45.4001" viewBox="0,0,36.60401,45.4001"><g transform="translate(-221.69798,-157.04995)"><g data-paper-data="{&quot;isPaintingLayer&quot;:true}" fill-rule="nonzero" stroke="#ffffff" stroke-linejoin="miter" stroke-miterlimit="10" stroke-dasharray="" stroke-dashoffset="0" style="mix-blend-mode: normal"><path d="M255.802,178.90271c0,5.27833 0,12.86594 0,15.835c0,3.167 -2.11133,5.21235 -5.27833,5.21235c-6.53194,0 -17.35252,0 -21.04735,0c-3.29896,0 -5.27833,-1.9134 -5.27833,-5.14638c0,-0.13196 0,-15.96696 0,-15.96696c0,-3.23298 1.97938,-5.21235 5.21235,-5.21235c6.53194,0 17.4185,0 21.11333,0c3.167,0 5.27833,2.04536 5.27833,5.27833zM246.76661,186.82021c0,-3.167 -3.63258,-6.79958 -6.79958,-6.79958c-3.167,0 -6.79959,3.63258 -6.79959,6.79958c0,3.167 3.63259,6.79959 6.79959,6.79959c3.167,0 6.79958,-3.63259 6.79958,-6.79959z" fill="#ffffff" stroke-width="5" stroke-linecap="butt"/><path d="M231.41769,172.49127c0,0 -0.7938,-12.421 8.56714,-12.4413c9.36443,0.02929 8.46563,12.20784 8.46563,12.20784" fill="none" stroke-width="6" stroke-linecap="round"/></g></g></svg>