<svg version="1.1" xmlns="http://www.w3.org/2000/svg" xmlns:xlink="http://www.w3.org/1999/xlink" width="40.58518" height="34.34976" viewBox="0,0,40.58518,34.34976"><g transform="translate(-307.60235,-167.625)"><g data-paper-data="{&quot;isPaintingLayer&quot;:true}" fill-rule="nonzero" stroke-linecap="butt" stroke-linejoin="miter" stroke-miterlimit="10" stroke-dasharray="" stroke-dashoffset="0" style="mix-blend-mode: normal"><path d="M307.62502,180c0,-6.83453 5.54047,-12.375 12.375,-12.375c6.83453,0 12.375,5.54047 12.375,12.375c0,6.83453 -5.54047,12.375 -12.375,12.375c-6.83453,0 -12.375,-5.54047 -12.375,-12.375z" fill="#d9d9d9" stroke="none" stroke-width="0"/><path d="M317.08406,184.57025c-0.89729,-0.03127 -1.62752,-0.56165 -1.65823,-1.76183c0.00001,-0.02871 0.0007,-5.47378 0.00203,-5.50247c-0.01465,-0.9909 0.64646,-1.84491 1.71676,-1.87619h5.5872c0.9,0.01015 1.83886,0.87616 1.84214,1.8767c0.00047,0.02948 0.00026,5.53174 -0.00065,5.56121c0.0059,1.10764 -0.79815,1.66116 -1.84149,1.70258z" fill="none" stroke="#666666" stroke-width="1"/><path d="M319.30313,185.26025v-6h5.93182v6z" fill="#d9d9d9" stroke="none" stroke-width="0"/><text transform="translate(317.67232,186.25656) scale(0.94902,0.94902)" font-size="12" xml:space="preserve" fill="#666666" fill-rule="nonzero" stroke="none" stroke-width="1" stroke-linecap="butt" stroke-linejoin="miter" stroke-miterlimit="10" stroke-dasharray="" stroke-dashoffset="0" font-family="HarmonyOS_Sans_SC, &quot;HarmonyOS Sans SC&quot;" font-weight="400" text-anchor="start" style="mix-blend-mode: normal"><tspan x="0" dy="0">✧</tspan></text><text transform="translate(307.84852,200.08233) scale(0.49234,0.49234)" font-size="12" xml:space="preserve" fill="#000000" fill-rule="nonzero" stroke="none" stroke-width="1" stroke-linecap="butt" stroke-linejoin="miter" stroke-miterlimit="10" stroke-dasharray="" stroke-dashoffset="0" font-family="HarmonyOS_Sans_SC, &quot;HarmonyOS Sans SC&quot;" font-weight="400" text-anchor="start" style="mix-blend-mode: normal"><tspan x="0" dy="0">项目说明</tspan></text><path d="M340.93754,184.42738v-10.875h7.25v10.875z" fill="none" stroke-opacity="0.38039" stroke="#000000" stroke-width="0"/></g></g></svg>