<svg version="1.1" xmlns="http://www.w3.org/2000/svg" xmlns:xlink="http://www.w3.org/1999/xlink" width="71.17277" height="64.61098" viewBox="0,0,71.17277,64.61098"><defs><radialGradient cx="270.00004" cy="180" r="35.58639" gradientUnits="userSpaceOnUse" id="color-1"><stop offset="0" stop-color="#ffffff" stop-opacity="0.01176"/><stop offset="1" stop-color="#ffffff" stop-opacity="0"/></radialGradient></defs><g transform="translate(-234.41365,-147.69451)"><g data-paper-data="{&quot;isPaintingLayer&quot;:true}" fill-rule="nonzero" stroke-linejoin="miter" stroke-miterlimit="10" stroke-dasharray="" stroke-dashoffset="0" style="mix-blend-mode: normal"><path d="M243.03226,166.234c27.19602,-17.29755 53.93551,-0.21895 53.93551,-0.21895" fill="none" stroke="#ffffff" stroke-width="7.5" stroke-linecap="round"/><path d="M252.02693,176.40877c17.71812,-12.0426 35.72721,0 35.72721,0" fill="none" stroke="#ffffff" stroke-width="7.5" stroke-linecap="round"/><path d="M261.43523,186.36861c9.26536,-6.58679 17.12958,0 17.12958,0" fill="none" stroke="#ffffff" stroke-width="7.5" stroke-linecap="round"/><path d="M270.00003,201.51099c-1.5154,0 -2.6811,-1.1657 -2.6811,-2.6811c0,-1.51539 1.16569,-2.68109 2.6811,-2.68109c1.51539,0 2.68109,1.16568 2.68109,2.68109c0,1.5154 -1.28226,2.6811 -2.68109,2.6811z" fill="#ffffff" stroke="#ffffff" stroke-width="8.5" stroke-linecap="butt"/><path d="M234.41366,212.30549v-64.61098h71.17277v64.61098z" fill="url(#color-1)" stroke="none" stroke-width="0" stroke-linecap="butt"/></g></g></svg>