<svg version="1.1" xmlns="http://www.w3.org/2000/svg" xmlns:xlink="http://www.w3.org/1999/xlink" width="84.85391" height="64.61098" viewBox="0,0,84.85391,64.61098"><defs><radialGradient cx="270.00005" cy="180" r="42.42696" gradientUnits="userSpaceOnUse" id="color-1"><stop offset="0" stop-color="#ffffff" stop-opacity="0.01176"/><stop offset="1" stop-color="#ffffff" stop-opacity="0"/></radialGradient></defs><g transform="translate(-227.57309,-147.69451)"><g data-paper-data="{&quot;isPaintingLayer&quot;:true}" fill-rule="nonzero" stroke-linejoin="miter" stroke-miterlimit="10" stroke-dasharray="" stroke-dashoffset="0" style="mix-blend-mode: normal"><path d="M251.39072,200.75783c-13.39332,0 -17.3284,-0.02688 -17.32239,-10.40896c0.0002,-0.33476 0.00735,-21.38921 0.02148,-21.72361c0.42353,-10.02728 4.35145,-9.37714 17.30092,-9.37714h24.94521c13.23493,0 18.54843,-0.21734 18.69909,10.04063c0.00505,0.34376 0.00275,21.40737 -0.0069,21.75101c-0.28481,10.14694 -5.59601,9.71806 -18.69219,9.71806z" fill="none" stroke="#ffffff" stroke-width="5.5" stroke-linecap="butt"/><path d="M306.71988,171.92473v16.15741" fill="none" stroke="#ffffff" stroke-width="7.5" stroke-linecap="round"/><path d="M252.23752,194.90867c-9.4528,0 -12.23012,-0.01931 -12.22588,-7.47592c0.00014,-0.24043 0.00519,-15.36214 0.01516,-15.60231c0.29892,-7.20179 3.07119,-6.73484 12.21073,-6.73484h17.60595c9.34101,0 13.0912,-0.1561 13.19753,7.21137c0.00356,0.2469 0.00194,15.37518 -0.00487,15.622c-0.20101,7.28773 -3.94958,6.9797 -13.19266,6.9797z" fill="#ffffff" stroke="none" stroke-width="0" stroke-linecap="butt"/><path d="M227.5731,212.30549v-64.61098h84.85391v64.61098z" fill="url(#color-1)" stroke="none" stroke-width="0" stroke-linecap="butt"/></g></g></svg>