<svg version="1.1" xmlns="http://www.w3.org/2000/svg" xmlns:xlink="http://www.w3.org/1999/xlink" width="95.11238" height="86.34347" viewBox="0,0,95.11238,86.34347"><defs><radialGradient cx="270" cy="179.99999" r="47.55619" gradientUnits="userSpaceOnUse" id="color-1"><stop offset="0" stop-color="#ffffff" stop-opacity="0.01176"/><stop offset="1" stop-color="#ffffff" stop-opacity="0"/></radialGradient></defs><g transform="translate(-222.44381,-136.82826)"><g data-paper-data="{&quot;isPaintingLayer&quot;:true}" fill-rule="nonzero" stroke-linecap="butt" stroke-linejoin="miter" stroke-miterlimit="10" stroke-dasharray="" stroke-dashoffset="0" style="mix-blend-mode: normal"><path d="M251.20387,174.34197c-12.27505,0 -12.27505,-16.4946 0,-16.4946h37.59234c12.27505,0 12.27505,16.4946 0,16.4946z" fill="none" stroke="#000000" stroke-width="4"/><path d="M288.79621,202.15263h-37.59234c-12.27505,0 -12.27505,-16.4946 0,-16.4946h37.59234c12.27505,0 12.27505,16.4946 0,16.4946zM252.45055,165.99877c0,-1.24669 -0.95899,-2.20567 -2.20567,-2.20567c-1.24669,0 -2.20568,0.95899 -2.20568,2.20567c0,1.24669 0.95899,2.20568 2.20568,2.20568c1.15079,0 2.20567,-0.95899 2.20567,-2.20568zM297.04351,193.90533c0,-4.50725 -3.64416,-8.2473 -8.2473,-8.2473c-4.50725,0 -8.2473,3.74006 -8.2473,8.2473c0,4.50725 3.74006,8.2473 8.2473,8.2473c4.60314,0 8.2473,-3.64415 8.2473,-8.2473z" fill="#000000" stroke="#000000" stroke-width="4"/><path d="M222.44381,223.17173v-86.34347h95.11238v86.34347z" fill="url(#color-1)" stroke="none" stroke-width="0"/></g></g></svg>