<svg version="1.1" xmlns="http://www.w3.org/2000/svg" xmlns:xlink="http://www.w3.org/1999/xlink" width="674.90579" height="390.55121" viewBox="0,0,674.90579,390.55121"><defs><linearGradient x1="251.18248" y1="-4.39505" x2="251.18248" y2="365.39508" gradientUnits="userSpaceOnUse" id="color-1"><stop offset="0" stop-color="#0095ff"/><stop offset="1" stop-color="#0073ee"/></linearGradient><linearGradient x1="56.06608" y1="226.99701" x2="56.06608" y2="386.15617" gradientUnits="userSpaceOnUse" id="color-2"><stop offset="0" stop-color="#d2eaff"/><stop offset="1" stop-color="#66b3f7"/></linearGradient><linearGradient x1="358.36977" y1="25.54469" x2="358.36977" y2="133.64905" gradientUnits="userSpaceOnUse" id="color-3"><stop offset="0" stop-color="#d2eaff"/><stop offset="1" stop-color="#66b3f7"/></linearGradient><linearGradient x1="426.42645" y1="279.03905" x2="426.42645" y2="330.09011" gradientUnits="userSpaceOnUse" id="color-4"><stop offset="0" stop-color="#d2eaff"/><stop offset="1" stop-color="#66b3f7"/></linearGradient><linearGradient x1="409.34099" y1="138.56749" x2="409.34099" y2="161.75344" gradientUnits="userSpaceOnUse" id="color-5"><stop offset="0" stop-color="#d2eaff"/><stop offset="1" stop-color="#66b3f7"/></linearGradient><linearGradient x1="157.02372" y1="242.34038" x2="157.02372" y2="279.67321" gradientUnits="userSpaceOnUse" id="color-6"><stop offset="0" stop-color="#d2eaff"/><stop offset="1" stop-color="#66b3f7"/></linearGradient><linearGradient x1="88.73243" y1="74.06645" x2="88.73243" y2="153.65655" gradientUnits="userSpaceOnUse" id="color-7"><stop offset="0" stop-color="#d2eaff"/><stop offset="1" stop-color="#66b3f7"/></linearGradient></defs><g transform="translate(86.27042,4.39504)"><g data-paper-data="{&quot;isPaintingLayer&quot;:true}" fill-rule="nonzero" stroke-width="0" stroke-linecap="butt" stroke-linejoin="miter" stroke-miterlimit="10" stroke-dasharray="" stroke-dashoffset="0" style="mix-blend-mode: normal"><path d="M-86.27042,365.39508v-369.79013h674.90579v369.79013z" fill="url(#color-1)" stroke="#000000"/><path d="M-23.5135,306.5766c0,-43.95058 35.629,-79.57959 79.57959,-79.57959c43.95059,0 79.57958,35.629 79.57958,79.57959c0,43.95058 -35.62899,79.57957 -79.57958,79.57957c-43.95058,0 -79.57959,-35.62899 -79.57959,-79.57957z" fill="url(#color-2)" stroke="none"/><path d="M304.31757,79.59686c0,-29.85219 24.19999,-54.05218 54.05218,-54.05218c29.85219,0 54.05217,24.19999 54.05217,54.05218c0,29.85219 -24.19998,54.05218 -54.05217,54.05218c-29.85219,0 -54.05218,-24.19999 -54.05218,-54.05218z" fill="url(#color-3)" stroke="none"/><path d="M400.90092,304.56458c0,-14.09735 11.42818,-25.52553 25.52553,-25.52553c14.09735,0 25.52552,11.42817 25.52552,25.52553c0,14.09735 -11.42817,25.52553 -25.52552,25.52553c-14.09735,0 -25.52553,-11.42817 -25.52553,-25.52553z" fill="url(#color-4)" stroke="none"/><path d="M397.74802,150.16046c0,-6.40262 5.19036,-11.59297 11.59298,-11.59297c6.40262,0 11.59297,5.19035 11.59297,11.59297c0,6.40262 -5.19035,11.59297 -11.59297,11.59297c-6.40262,0 -11.59298,-5.19035 -11.59298,-11.59297z" fill="url(#color-5)" stroke="none"/><path d="M138.35731,261.00678c0,-10.30918 8.35725,-18.66642 18.66643,-18.66642c10.30918,0 18.66642,8.35724 18.66642,18.66642c0,10.30918 -8.35724,18.66642 -18.66641,18.66642c-10.30918,0 -18.66643,-8.35724 -18.66643,-18.66642z" fill="url(#color-6)" stroke="none"/><path d="M48.93738,113.86151c0,-21.9782 17.81686,-39.79505 39.79505,-39.79505c21.9782,0 39.79504,17.81686 39.79504,39.79505c0,21.9782 -17.81685,39.79504 -39.79504,39.79504c-21.9782,0 -39.79505,-17.81685 -39.79505,-39.79504z" fill="url(#color-7)" stroke="none"/></g></g></svg>