<svg version="1.1" xmlns="http://www.w3.org/2000/svg" xmlns:xlink="http://www.w3.org/1999/xlink" width="659.66586" height="401.05122" viewBox="0,0,659.66586,401.05122"><defs><linearGradient x1="241.56255" y1="-4.39506" x2="241.56255" y2="364.39509" gradientUnits="userSpaceOnUse" id="color-1"><stop offset="0" stop-color="#0077cc"/><stop offset="1" stop-color="#000566"/></linearGradient><linearGradient x1="62.06612" y1="237.49702" x2="62.06612" y2="396.65619" gradientUnits="userSpaceOnUse" id="color-2"><stop offset="0" stop-color="#d1eaff"/><stop offset="1" stop-color="#0064bb"/></linearGradient><linearGradient x1="325.36976" y1="22.54469" x2="325.36976" y2="123.64905" gradientUnits="userSpaceOnUse" id="color-3"><stop offset="0" stop-color="#d1eaff"/><stop offset="1" stop-color="#5291c8"/></linearGradient><linearGradient x1="426.42647" y1="255.03907" x2="426.42647" y2="306.09013" gradientUnits="userSpaceOnUse" id="color-4"><stop offset="0" stop-color="#d2eaff"/><stop offset="1" stop-color="#5595ce"/></linearGradient><linearGradient x1="400.34102" y1="122.06751" x2="400.34102" y2="145.25345" gradientUnits="userSpaceOnUse" id="color-5"><stop offset="0" stop-color="#d2eaff"/><stop offset="1" stop-color="#579ad4"/></linearGradient><linearGradient x1="161.52373" y1="221.3404" x2="161.52373" y2="258.67323" gradientUnits="userSpaceOnUse" id="color-6"><stop offset="0" stop-color="#d1eaff"/><stop offset="1" stop-color="#508ec3"/></linearGradient><linearGradient x1="61.73246" y1="80.06646" x2="61.73246" y2="159.65656" gradientUnits="userSpaceOnUse" id="color-7"><stop offset="0" stop-color="#c7e5ff"/><stop offset="1" stop-color="#126bba"/></linearGradient></defs><g transform="translate(88.27041,4.39504)"><g data-paper-data="{&quot;isPaintingLayer&quot;:true}" fill-rule="nonzero" stroke-linecap="butt" stroke-linejoin="miter" stroke-miterlimit="10" stroke-dasharray="" stroke-dashoffset="0" style="mix-blend-mode: normal"><path d="M-88.27041,364.39509v-368.79013h659.66586v368.79013z" fill="url(#color-1)" stroke="#000000" stroke-width="0"/><path d="M-17.51348,317.0766c0,-43.95058 35.629,-79.57959 79.57959,-79.57959c43.95059,0 79.57958,35.629 79.57958,79.57959c0,43.95058 -35.62899,79.57957 -79.57958,79.57957c-43.95058,0 -79.57959,-35.62899 -79.57959,-79.57957z" fill="url(#color-2)" stroke="none" stroke-width="0"/><path d="M274.81761,73.09686c0,-27.91919 22.63299,-50.55218 50.55218,-50.55218c27.91919,0 50.55217,22.63299 50.55217,50.55218c0,27.91919 -22.63298,50.55218 -50.55217,50.55218c-27.91919,0 -50.55218,-22.63299 -50.55218,-50.55218z" fill="url(#color-3)" stroke="none" stroke-width="0"/><path d="M400.90095,280.5646c0,-14.09735 11.42818,-25.52553 25.52553,-25.52553c14.09735,0 25.52552,11.42817 25.52552,25.52553c0,14.09735 -11.42817,25.52553 -25.52552,25.52553c-14.09735,0 -25.52553,-11.42817 -25.52553,-25.52553z" fill="url(#color-4)" stroke="none" stroke-width="0"/><path d="M388.74805,133.66046c0,-6.40262 5.19036,-11.59297 11.59298,-11.59297c6.40262,0 11.59297,5.19035 11.59297,11.59297c0,6.40262 -5.19035,11.59297 -11.59297,11.59297c-6.40262,0 -11.59298,-5.19035 -11.59298,-11.59297z" fill="url(#color-5)" stroke="none" stroke-width="0"/><path d="M142.85732,240.00681c0,-10.30918 8.35725,-18.66642 18.66643,-18.66642c10.30918,0 18.66642,8.35724 18.66642,18.66642c0,10.30918 -8.35724,18.66642 -18.66641,18.66642c-10.30918,0 -18.66643,-8.35724 -18.66643,-18.66642z" fill="url(#color-6)" stroke="none" stroke-width="0"/><path d="M21.93741,119.86151c0,-21.9782 17.81686,-39.79505 39.79505,-39.79505c21.9782,0 39.79504,17.81686 39.79504,39.79505c0,21.9782 -17.81685,39.79504 -39.79504,39.79504c-21.9782,0 -39.79505,-17.81685 -39.79505,-39.79504z" fill="url(#color-7)" stroke="none" stroke-width="0"/><path d="M191.53457,180.00004c0,-26.76669 21.69871,-48.46546 48.46546,-48.46546c26.76669,0 48.46546,21.69871 48.46546,48.46546c0,26.76669 -21.69871,48.46543 -48.46546,48.46543c-26.76669,0 -48.46546,-21.69869 -48.46546,-48.46543z" fill="none" stroke="#ffffff" stroke-width="15"/></g></g></svg>